<svg width="16" height="16" viewBox="0 0 16 16" fill="none" xmlns="http://www.w3.org/2000/svg">
<path fill-rule="evenodd" clip-rule="evenodd" d="M8.00012 13.4999C11.0377 13.4999 13.5001 11.0375 13.5001 7.99994C13.5001 4.96237 11.0377 2.49994 8.00012 2.49994C4.96256 2.49994 2.50012 4.96237 2.50012 7.99994C2.50012 11.0375 4.96256 13.4999 8.00012 13.4999ZM8.00012 14.9999C11.8661 14.9999 15.0001 11.8659 15.0001 7.99994C15.0001 4.13395 11.8661 0.999939 8.00012 0.999939C4.13413 0.999939 1.00012 4.13395 1.00012 7.99994C1.00012 11.8659 4.13413 14.9999 8.00012 14.9999ZM6.44033 4.53937C6.87027 4.1862 7.43445 3.97482 8.00013 3.97482C9.21732 3.97482 10.3396 4.79511 10.3396 6.11558C10.3396 6.49175 10.2616 6.86006 10.0422 7.21583C9.83377 7.55379 9.52906 7.82877 9.16722 8.08226C8.94971 8.23464 8.84154 8.33905 8.78842 8.41026C8.75011 8.46163 8.75012 8.48069 8.75013 8.49887L8.75013 8.49973C8.75013 8.91394 8.41434 9.24973 8.00013 9.24973C7.58592 9.24973 7.25013 8.91394 7.25013 8.49973C7.25013 7.70501 7.7938 7.21296 8.30657 6.85374C8.5863 6.65777 8.70792 6.52176 8.76545 6.42848C8.81198 6.35302 8.83956 6.26984 8.83956 6.11558C8.83956 5.81638 8.59588 5.47482 8.00013 5.47482C7.79505 5.47482 7.56452 5.55711 7.39243 5.69846C7.225 5.836 7.1607 5.98524 7.1607 6.11558C7.1607 6.52979 6.82491 6.86558 6.4107 6.86558C5.99648 6.86558 5.6607 6.52979 5.6607 6.11558C5.6607 5.44249 6.00573 4.89635 6.44033 4.53937ZM8.00012 11.9999C8.55241 11.9999 9.00012 11.5522 9.00012 10.9999C9.00012 10.4477 8.55241 9.99994 8.00012 9.99994C7.44784 9.99994 7.00012 10.4477 7.00012 10.9999C7.00012 11.5522 7.44784 11.9999 8.00012 11.9999Z" fill="black"/>
</svg>
