<svg width="27" height="27" viewBox="0 0 27 27" fill="none" xmlns="http://www.w3.org/2000/svg">
<path fill-rule="evenodd" clip-rule="evenodd" d="M24.8092 0.206335C25.4942 -0.204654 26.3827 0.0174746 26.7937 0.702473C27.2011 1.38149 26.9864 2.26044 26.3154 2.67606C26.3116 2.67858 26.3031 2.68431 26.2905 2.69332C26.2584 2.71626 26.2001 2.75999 26.124 2.82595C25.9713 2.95824 25.7507 3.17663 25.525 3.4927C25.1294 4.04646 24.6912 4.93558 24.6044 6.26859C25.4843 7.01903 26.0355 8.1399 26.0355 9.36407C26.0355 10.1669 25.7979 10.9638 25.3525 11.6318L25.2981 11.7134C24.5466 12.8407 24.3576 14.2519 24.786 15.5373L25.6949 18.264C25.9205 18.9408 26.0355 19.6495 26.0355 20.3628C26.0355 24.0284 23.064 27 19.3984 27H2.57141C1.15126 27 0 25.8487 0 24.4286C0 22.0714 1.58589 20.0846 3.74893 19.4769C2.59266 17.8758 1.92856 15.717 1.92856 13.5002C1.92856 10.7763 2.81126 8.34276 4.53011 6.58321C6.25417 4.81831 8.69684 3.85734 11.5713 3.85734C14.5073 3.85734 16.6688 5.40448 17.8307 7.58104C18.0339 7.25442 18.2741 6.95612 18.5443 6.6908C17.8183 5.24222 17.7181 3.89207 17.8503 2.8342C17.9279 2.21343 18.0834 1.7053 18.2238 1.34427C18.2942 1.1631 18.3618 1.0167 18.4156 0.909027C18.4426 0.855109 18.4662 0.810646 18.4853 0.776126L18.5102 0.731761L18.5199 0.715216L18.5239 0.708367L18.5257 0.7053L18.5274 0.702473C18.9384 0.0174794 19.8269 -0.204639 20.5119 0.206357C21.1915 0.614086 21.4155 1.49173 21.0177 2.17445C21.0155 2.17846 21.0104 2.18798 21.0031 2.20274C20.9853 2.2382 20.9549 2.30273 20.9199 2.39277C20.8494 2.57414 20.7638 2.84949 20.7208 3.19301C20.6524 3.74069 20.6859 4.49635 21.1211 5.37533C21.3432 5.33793 21.5696 5.31593 21.7988 5.31027C22.0224 3.78996 22.5808 2.63749 23.171 1.81125C23.5479 1.28359 23.93 0.899303 24.2294 0.639852C24.3793 0.50995 24.5093 0.410545 24.6091 0.339312C24.659 0.303662 24.7015 0.27496 24.7352 0.252921L24.7792 0.224779L24.796 0.214361L24.803 0.210051L24.8062 0.208119L24.8092 0.206335ZM13.0178 18.8037C14.7098 18.8037 16.0449 18.0691 16.9888 16.989C18.0494 15.8105 18.8289 14.3821 19.2374 12.808L20.0587 9.64304C20.3016 8.7073 21.2009 8.09693 22.1602 8.21684C22.6913 8.28323 23.1427 8.76776 23.1427 9.36407C23.1427 9.60456 23.0693 9.84153 22.9455 10.0272L22.8911 10.1087C21.6444 11.9789 21.3309 14.3198 22.0416 16.4521L22.9505 19.1788C23.0778 19.5606 23.1427 19.9604 23.1427 20.3628C23.1427 22.4308 21.4663 24.1072 19.3984 24.1072H2.91562C3.07159 23.0168 4.00932 22.1786 5.14282 22.1786H5.58251L5.60102 22.1786H6.452C7.41539 22.1786 8.19637 21.3976 8.19637 20.4342C8.19637 19.7615 7.81662 19.1939 7.29262 18.9012C6.03736 18.2001 4.82139 16.148 4.82139 13.5002C4.82139 11.4027 5.49237 9.73797 6.59945 8.60467C7.70131 7.47671 9.35683 6.75017 11.5713 6.75017C14.1679 6.75017 15.9106 8.78695 15.9106 11.5716C15.9106 12.8034 15.5983 13.9526 15.0687 14.7469C14.5677 15.4984 13.9031 15.9108 13.0178 15.9108C11.3388 15.9108 10.6071 14.8162 10.6071 13.9822C10.6071 12.9189 11.339 12.5358 11.5713 12.5358C12.3702 12.5358 13.0178 11.8882 13.0178 11.0894C13.0178 10.2906 12.3702 9.643 11.5713 9.643C9.43212 9.643 7.71423 11.649 7.71423 13.9822C7.71423 16.5449 9.87534 18.8037 13.0178 18.8037Z" fill="#ADA8BA"/>
</svg>
