<svg width="27" height="28" viewBox="0 0 27 28" fill="none" xmlns="http://www.w3.org/2000/svg">
<path fill-rule="evenodd" clip-rule="evenodd" d="M7.82812 9.33717C6.97381 9.33717 6.28125 8.64461 6.28125 7.7903V6.25018C4.57262 6.25018 3.1875 7.6353 3.1875 9.34393V11.4064H23.8125V9.34393C23.8125 7.6353 22.4274 6.25018 20.7187 6.25018V7.79709C20.7187 8.65141 20.0262 9.34397 19.1719 9.34397C18.3176 9.34397 17.625 8.65141 17.625 7.79709V6.25018H9.375V7.7903C9.375 8.64461 8.68244 9.33717 7.82812 9.33717ZM17.625 3.15643H9.375V1.60449C9.375 0.750176 8.68244 0.0576172 7.82812 0.0576172C6.97381 0.0576172 6.28125 0.750176 6.28125 1.60449V3.15643C2.86399 3.15643 0.09375 5.92667 0.09375 9.34393V21.7189C0.09375 25.1362 2.86399 27.9064 6.28125 27.9064H20.7187C24.136 27.9064 26.9062 25.1362 26.9062 21.7189V9.34393C26.9062 5.92667 24.136 3.15643 20.7187 3.15643V1.60956C20.7187 0.75524 20.0262 0.0626806 19.1719 0.0626806C18.3176 0.0626806 17.625 0.75524 17.625 1.60956V3.15643ZM3.1875 14.5002V21.7189C3.1875 23.4276 4.57262 24.8127 6.28125 24.8127H20.7187C22.4274 24.8127 23.8125 23.4276 23.8125 21.7189V14.5002H3.1875Z" fill="#ADA8BA"/>
</svg>
