<svg width="22" height="18" viewBox="0 0 22 18" fill="none" xmlns="http://www.w3.org/2000/svg">
<path fill-rule="evenodd" clip-rule="evenodd" d="M9.75403 4.5C9.75403 5.74264 8.74667 6.75 7.50403 6.75C6.26139 6.75 5.25403 5.74264 5.25403 4.5C5.25403 3.25736 6.26139 2.25 7.50403 2.25C8.74667 2.25 9.75403 3.25736 9.75403 4.5ZM11.8623 5.625C11.3627 7.56588 9.60085 9 7.50403 9C5.40721 9 3.64535 7.56588 3.1458 5.625H1.125C0.50368 5.625 0 5.12132 0 4.5C0 3.87868 0.50368 3.375 1.125 3.375H3.1458C3.64535 1.43412 5.40721 0 7.50403 0C9.60085 0 11.3627 1.43412 11.8623 3.375H19.8792C20.5005 3.375 21.0042 3.87868 21.0042 4.5C21.0042 5.12132 20.5005 5.625 19.8792 5.625H11.8623ZM1.125 12.375L9.14213 12.375C9.64168 10.4341 11.4035 9 13.5004 9C15.5972 9 17.359 10.4341 17.8586 12.375H19.8794C20.5007 12.375 21.0044 12.8787 21.0044 13.5C21.0044 14.1213 20.5007 14.625 19.8794 14.625H17.8586C17.359 16.5659 15.5972 18 13.5004 18C11.4035 18 9.64168 16.5659 9.14213 14.625L1.125 14.625C0.503679 14.625 0 14.1213 0 13.5C0 12.8787 0.503679 12.375 1.125 12.375ZM13.5004 11.25C12.2577 11.25 11.2504 12.2574 11.2504 13.5C11.2504 14.7426 12.2577 15.75 13.5004 15.75C14.743 15.75 15.7504 14.7426 15.7504 13.5C15.7504 12.2574 14.743 11.25 13.5004 11.25Z" fill="#ADA8BA"/>
</svg>
