<svg width="27" height="27" viewBox="0 0 27 27" fill="none" xmlns="http://www.w3.org/2000/svg">
<path fill-rule="evenodd" clip-rule="evenodd" d="M20.7693 3.11538H6.23086C4.51029 3.11538 3.11549 4.51019 3.11549 6.23077V16.6718L5.11256 15.2194C6.40299 14.2809 8.1546 14.2938 9.43109 15.2511L11.3581 16.6964L16.2758 12.4812C17.6756 11.2815 19.7518 11.3197 21.1065 12.5701L23.8846 15.1346V6.23077C23.8846 4.51019 22.4898 3.11538 20.7693 3.11538ZM27 18.6878V6.23077C27 2.78961 24.2104 0 20.7693 0H6.23086C2.78972 0 0.000109872 2.78961 0.000109872 6.23077V19.7135C-3.65513e-05 19.7259 -3.66965e-05 19.7382 0.000109872 19.7506V20.7692C0.000109872 24.2104 2.78972 27 6.23086 27H20.7693C24.2104 27 27 24.2104 27 20.7692V18.6976V18.6878ZM23.8846 19.3743L18.9934 14.8593C18.7999 14.6807 18.5033 14.6752 18.3033 14.8466L12.4369 19.875L11.4882 20.6882L10.4885 19.9385L7.56187 17.7435C7.37951 17.6067 7.12928 17.6048 6.94493 17.7389L3.11549 20.524V20.7692C3.11549 22.4898 4.51029 23.8846 6.23086 23.8846H20.7693C22.4898 23.8846 23.8846 22.4898 23.8846 20.7692V19.3743ZM12.4616 9.34615C12.4616 11.0667 11.0668 12.4615 9.34623 12.4615C7.62566 12.4615 6.23086 11.0667 6.23086 9.34615C6.23086 7.62557 7.62566 6.23077 9.34623 6.23077C11.0668 6.23077 12.4616 7.62557 12.4616 9.34615Z" fill="#ADA8BA"/>
</svg>
