<svg width="28" height="28" viewBox="0 0 28 28" fill="none" xmlns="http://www.w3.org/2000/svg">
<path fill-rule="evenodd" clip-rule="evenodd" d="M20.3266 8.55316C21.7503 7.89755 21.875 7.30494 21.875 7C21.875 6.69506 21.7503 6.10245 20.3266 5.44684C18.898 4.78894 16.6911 4.375 14 4.375C11.3089 4.375 9.10202 4.78894 7.67336 5.44684C6.24965 6.10245 6.125 6.69506 6.125 7C6.125 7.30494 6.24965 7.89755 7.67336 8.55316C9.10202 9.21106 11.3089 9.625 14 9.625C16.6911 9.625 18.898 9.21106 20.3266 8.55316ZM21.875 10.7146C19.951 11.7382 17.1361 12.25 14 12.25C10.8639 12.25 8.04898 11.7382 6.125 10.7146V14C6.125 14.3049 6.24965 14.8976 7.67336 15.5532C9.10202 16.2111 11.3089 16.625 14 16.625C16.6911 16.625 18.898 16.2111 20.3266 15.5532C21.7503 14.8975 21.875 14.3049 21.875 14V10.7146ZM21.875 17.7146C19.951 18.7382 17.1361 19.25 14 19.25C10.8639 19.25 8.04898 18.7382 6.125 17.7146V21C6.125 21.3049 6.24965 21.8975 7.67336 22.5532C9.10202 23.2111 11.3089 23.625 14 23.625C16.6911 23.625 18.898 23.2111 20.3266 22.5532C21.7503 21.8975 21.875 21.3049 21.875 21V17.7146ZM24.5 7C24.5 3.5 19.799 1.75 14 1.75C8.20101 1.75 3.5 3.5 3.5 7V14V21C3.5 24.5 8.20101 26.25 14 26.25C19.799 26.25 24.5 24.5 24.5 21V14V7Z" fill="#ADA8BA"/>
</svg>
