<svg width="17" height="17" viewBox="0 0 17 17" fill="none" xmlns="http://www.w3.org/2000/svg">
<path fill-rule="evenodd" clip-rule="evenodd" d="M16.7333 7.85603C17.0889 8.21168 17.0889 8.78831 16.7333 9.14397L13.6975 12.1797C13.3419 12.5353 12.7653 12.5353 12.4096 12.1797C12.0539 11.824 12.0539 11.2474 12.4096 10.8917L13.8906 9.41071L4.55357 9.41071C4.0506 9.41071 3.64286 9.00297 3.64286 8.5C3.64286 7.99702 4.0506 7.58928 4.55357 7.58928L13.8906 7.58928L12.4096 6.10826C12.0539 5.7526 12.0539 5.17597 12.4096 4.82031C12.7653 4.46466 13.3419 4.46466 13.6975 4.82031L16.7333 7.85603ZM10.3214 3.94643C10.3214 4.4494 9.91369 4.85714 9.41072 4.85714C8.90774 4.85714 8.5 4.4494 8.5 3.94643L8.5 3.64286C8.5 2.63691 7.68452 1.82143 6.67857 1.82143L3.64286 1.82143C2.63691 1.82143 1.82143 2.63691 1.82143 3.64286L1.82143 13.3571C1.82143 14.3631 2.63691 15.1786 3.64286 15.1786L6.67857 15.1786C7.68452 15.1786 8.5 14.3631 8.5 13.3571L8.5 13.0536C8.5 12.5506 8.90774 12.1429 9.41072 12.1429C9.91369 12.1429 10.3214 12.5506 10.3214 13.0536L10.3214 13.3571C10.3214 15.369 8.69047 17 6.67857 17L3.64286 17C1.63097 17 3.22894e-06 15.369 3.31689e-06 13.3571L5.69188e-06 3.64286C5.77982e-06 1.63096 1.63097 -6.71802e-07 3.64286 -5.83859e-07L6.67857 -4.51164e-07C8.69047 -3.63221e-07 10.3214 1.63096 10.3214 3.64286L10.3214 3.94643Z" fill="#DC4343"/>
</svg>
