<svg width="19" height="19" viewBox="0 0 19 19" fill="none" xmlns="http://www.w3.org/2000/svg">
<path fill-rule="evenodd" clip-rule="evenodd" d="M15.8153 16.2943C16.2566 15.8994 16.5342 15.3256 16.5342 14.6869V8.18416C16.5342 7.51459 16.2232 6.883 15.6925 6.47476L10.6604 2.60387C9.88515 2.00756 8.80571 2.00756 8.0305 2.60387L2.99835 6.47476C2.93201 6.52579 2.8691 6.58031 2.80981 6.63796C2.39474 7.04149 2.15664 7.59829 2.15664 8.18416V14.6869C2.15664 15.3256 2.43431 15.8994 2.87552 16.2943C3.2548 16.6338 3.75494 16.841 4.30344 16.8435C4.30672 16.8435 4.31 16.8435 4.31328 16.8435L5.03216 16.8435V11.8113C5.03216 10.2232 6.31957 8.9358 7.90767 8.9358H10.7832C12.3713 8.9358 13.6587 10.2232 13.6587 11.8113V16.8435H14.3776C14.3809 16.8435 14.3841 16.8435 14.3874 16.8435C14.9359 16.841 15.4361 16.6338 15.8153 16.2943ZM18.6909 14.6869C18.6909 17.069 16.7597 19.0001 14.3776 19.0001H4.31328C1.93112 19.0001 0 17.069 0 14.6869V8.18416C0 6.84502 0.621992 5.58185 1.68342 4.76536L6.71558 0.89447C8.26599 -0.298156 10.4249 -0.298158 11.9753 0.89447L17.0074 4.76536C17.1401 4.86742 17.2659 4.97646 17.3845 5.09175C18.2147 5.89883 18.6909 7.01242 18.6909 8.18416V14.6869ZM11.5021 11.8113C11.5021 11.4143 11.1802 11.0924 10.7832 11.0924H7.90767C7.51065 11.0924 7.18879 11.4143 7.18879 11.8113V16.8435H11.5021V11.8113Z" fill="#ADA8BA"/>
</svg>
