<svg width="27" height="23" viewBox="0 0 27 23" fill="none" xmlns="http://www.w3.org/2000/svg">
<path fill-rule="evenodd" clip-rule="evenodd" d="M1.98258 2.2682C3.31631 0.804204 5.21885 0 7.455 0C9.49181 0 11.6668 0.96269 13.1234 2.84447C14.5743 0.963672 16.7409 0 18.795 0C21.0239 0 22.926 0.8001 24.2615 2.26177C25.5848 3.71009 26.25 5.6946 26.25 7.89859C26.25 11.6879 24.3026 14.7377 21.8373 17.1089C19.3774 19.4749 16.2887 21.2784 13.7281 22.6032C13.3481 22.7999 12.896 22.7989 12.5168 22.6006C9.95612 21.2616 6.86656 19.4715 4.40841 17.117C1.94154 14.7541 0 11.7129 0 7.89859C0 5.70219 0.661577 3.71823 1.98258 2.2682ZM3.92305 4.03602C3.12676 4.91008 2.625 6.21917 2.625 7.89859C2.625 10.7398 4.0531 13.1417 6.22417 15.2213C8.23039 17.1429 10.7761 18.6949 13.1277 19.9541C15.4653 18.7109 18.0102 17.1476 20.0176 15.217C22.1944 13.1233 23.625 10.7117 23.625 7.89859C23.625 6.21335 23.1207 4.90482 22.3235 4.0324C21.5386 3.17333 20.3694 2.625 18.795 2.625C17.0873 2.625 15.1319 3.72289 14.3719 6.03527C14.1949 6.5739 13.692 6.93797 13.125 6.93797C12.558 6.93797 12.0551 6.5739 11.8781 6.03527C11.1189 3.72537 9.14414 2.625 7.455 2.625C5.87533 2.625 4.70661 3.17593 3.92305 4.03602Z" fill="white"/>
</svg>
