<svg width="21" height="21" viewBox="0 0 21 21" fill="none" xmlns="http://www.w3.org/2000/svg">
<path fill-rule="evenodd" clip-rule="evenodd" d="M16.1539 2.42308H4.84622C3.508 2.42308 2.42316 3.50793 2.42316 4.84615V12.967L3.97644 11.8373C4.9801 11.1074 6.34247 11.1174 7.33529 11.862L8.8341 12.9861L12.659 9.70762C13.7477 8.77447 15.3625 8.80418 16.4162 9.77675L18.5769 11.7713V4.84615C18.5769 3.50793 17.4921 2.42308 16.1539 2.42308ZM21 14.5349V4.84615C21 2.1697 18.8303 0 16.1539 0H4.84622C2.16978 0 8.54559e-05 2.1697 8.54559e-05 4.84615V15.3327C-2.84288e-05 15.3423 -2.85417e-05 15.3519 8.54559e-05 15.3616V16.1538C8.54559e-05 18.8303 2.16978 21 4.84622 21H16.1539C18.8303 21 21 18.8303 21 16.1538V14.5426V14.5349ZM18.5769 15.0689L14.7726 11.5572C14.6221 11.4183 14.3914 11.4141 14.2359 11.5474L9.67312 15.4583L8.93523 16.0908L8.15775 15.5077L5.88145 13.8005C5.73962 13.6941 5.545 13.6927 5.40162 13.7969L2.42316 15.9631V16.1538C2.42316 17.4921 3.508 18.5769 4.84622 18.5769H16.1539C17.4921 18.5769 18.5769 17.4921 18.5769 16.1538V15.0689ZM9.69235 7.26923C9.69235 8.60746 8.60751 9.69231 7.26929 9.69231C5.93107 9.69231 4.84622 8.60746 4.84622 7.26923C4.84622 5.931 5.93107 4.84615 7.26929 4.84615C8.60751 4.84615 9.69235 5.931 9.69235 7.26923Z" fill="#6F4ADD"/>
</svg>
