<svg width="25" height="25" viewBox="0 0 25 25" fill="none" xmlns="http://www.w3.org/2000/svg">
<path fill-rule="evenodd" clip-rule="evenodd" d="M12.1151 3.13086C11.4679 3.13086 10.9432 3.65553 10.9432 4.30274C10.9432 4.94994 11.4679 5.47461 12.1151 5.47461L19.537 5.47461L19.537 12.885C19.537 13.5322 20.0617 14.0569 20.7089 14.0569C21.3561 14.0569 21.8808 13.5322 21.8808 12.885L21.8808 4.30273C21.8808 3.65552 21.3561 3.13086 20.7089 3.13086H12.1151ZM12.8848 21.8694C13.532 21.8694 14.0567 21.3447 14.0567 20.6975C14.0567 20.0503 13.532 19.5256 12.8848 19.5256L5.46289 19.5256V12.1153C5.46289 11.4681 4.93822 10.9434 4.29102 10.9434C3.64381 10.9434 3.11914 11.4681 3.11914 12.1153V20.6975C3.11914 21.0083 3.2426 21.3064 3.46237 21.5261C3.68214 21.7459 3.98021 21.8694 4.29102 21.8694L12.8848 21.8694Z" fill="#ADA8BA"/>
</svg>
