<svg width="45" height="34" viewBox="0 0 45 34" fill="none" xmlns="http://www.w3.org/2000/svg">
<path fill-rule="evenodd" clip-rule="evenodd" d="M30.8868 1.20114C27.1257 2.824 25.3376 7.144 26.8515 10.9502L34.0274 28.9919C35.6131 32.9787 40.874 33.8411 43.6496 30.5692C45.4549 28.441 45.4496 25.3174 43.6369 23.1955L33.6983 11.5614C39.6254 13.0301 43.0715 5.09301 37.9515 1.76538L37.1183 1.22392C35.552 0.205914 33.5802 0.0389404 31.865 0.779047L30.8868 1.20114ZM6.92358 5.01361C8.43375 1.29981 12.6686 -0.486599 16.3824 1.02357L17.275 1.38651C18.5608 1.90936 19.5832 2.89418 20.1607 4.12198C20.3634 4.43627 20.539 4.77838 20.6823 5.14745L27.5788 22.9043C29.0276 26.6345 27.2465 30.8404 23.5594 32.3957L22.6043 32.7987C20.9178 33.51 18.9872 33.3296 17.4618 32.3181L16.634 31.7691C11.6565 28.4684 15.0988 20.7369 20.8822 22.2272L11.239 10.7351C11.1487 10.6275 11.0631 10.5173 10.9822 10.4048L9.56448 23.4912C9.22132 26.6587 5.9418 28.6172 2.99041 27.417C0.536984 26.4194 -0.643153 23.6217 0.354499 21.1683L6.92358 5.01361Z" fill="#717192"/>
</svg>
