<svg width="21" height="22" viewBox="0 0 21 22" fill="none" xmlns="http://www.w3.org/2000/svg">
<path fill-rule="evenodd" clip-rule="evenodd" d="M9.27305 2.2H11.6234C11.7843 2.2 11.9149 2.33048 11.9149 2.49148C11.9149 5.14392 14.7862 6.80185 17.0834 5.47557C17.2228 5.3951 17.401 5.44285 17.4815 5.58223L18.6567 7.61779C18.7372 7.75719 18.6894 7.93545 18.55 8.01594C16.2529 9.3422 16.2529 12.6579 18.55 13.9841C18.6894 14.0646 18.7372 14.2429 18.6567 14.3823L17.4815 16.4178C17.401 16.5572 17.2228 16.605 17.0834 16.5245C14.7863 15.1982 11.9149 16.8561 11.9149 19.5086C11.9149 19.6695 11.7844 19.8 11.6234 19.8H9.27301C9.11203 19.8 8.98153 19.6695 8.98153 19.5085C8.98153 16.8559 6.11 15.1982 3.8129 16.5244C3.67343 16.6049 3.49512 16.5571 3.41463 16.4177L2.23947 14.3823C2.15898 14.2429 2.20674 14.0646 2.34615 13.9841C4.64331 12.6579 4.64331 9.3422 2.34615 8.01594C2.20674 7.93545 2.15898 7.75719 2.23947 7.61778L3.41463 5.58234C3.49513 5.44291 3.67343 5.39513 3.81288 5.47563C6.11004 6.8019 8.98153 5.14409 8.98153 2.49152C8.98153 2.33052 9.11204 2.2 9.27305 2.2ZM6.78153 2.49152C6.78153 1.11549 7.89702 0 9.27305 0H11.6234C12.9994 0 14.1149 1.11549 14.1149 2.49148C14.1149 3.45042 15.1529 4.04978 15.9834 3.57031C17.175 2.88233 18.6987 3.29061 19.3867 4.48223L20.562 6.51779C21.25 7.70944 20.8417 9.2332 19.65 9.9212C18.8195 10.4007 18.8195 11.5994 19.65 12.0789C20.8417 12.7669 21.25 14.2906 20.562 15.4823L19.3867 17.5178C18.6987 18.7095 17.175 19.1177 15.9834 18.4298C15.1529 17.9503 14.1149 18.5496 14.1149 19.5086C14.1149 20.8845 12.9994 22 11.6234 22H9.27301C7.897 22 6.78153 20.8845 6.78153 19.5085C6.78153 18.5495 5.74339 17.9502 4.9129 18.4297C3.72121 19.1177 2.19739 18.7094 1.50937 17.5177L0.33421 15.4823C-0.353791 14.2906 0.054499 12.7669 1.24615 12.0789C2.07664 11.5994 2.07664 10.4007 1.24615 9.92119C0.0544996 9.23319 -0.35379 7.70943 0.334211 6.51778L1.50937 4.48234C2.19739 3.29066 3.7212 2.88236 4.91288 3.57038C5.74339 4.04987 6.78153 3.45051 6.78153 2.49152ZM12.6482 11C12.6482 12.215 11.6632 13.2 10.4482 13.2C9.23313 13.2 8.24816 12.215 8.24816 11C8.24816 9.78497 9.23313 8.8 10.4482 8.8C11.6632 8.8 12.6482 9.78497 12.6482 11ZM14.8482 11C14.8482 13.4301 12.8782 15.4 10.4482 15.4C8.0181 15.4 6.04816 13.4301 6.04816 11C6.04816 8.56994 8.0181 6.6 10.4482 6.6C12.8782 6.6 14.8482 8.56994 14.8482 11Z" fill="#ADA8BA"/>
</svg>
