<svg width="18" height="18" viewBox="0 0 18 18" fill="none" xmlns="http://www.w3.org/2000/svg">
<path fill-rule="evenodd" clip-rule="evenodd" d="M1.07192 1.07192C1.58449 0.559359 2.41551 0.559359 2.92808 1.07192L9 7.14384L15.0719 1.07192C15.5845 0.559359 16.4155 0.559359 16.9281 1.07192C17.4406 1.58449 17.4406 2.41551 16.9281 2.92808L10.8562 9L16.9281 15.0719C17.4406 15.5845 17.4406 16.4155 16.9281 16.9281C16.4155 17.4406 15.5845 17.4406 15.0719 16.9281L9 10.8562L2.92808 16.9281C2.41551 17.4406 1.58449 17.4406 1.07192 16.9281C0.559359 16.4155 0.559359 15.5845 1.07192 15.0719L7.14384 9L1.07192 2.92808C0.559359 2.41551 0.559359 1.58449 1.07192 1.07192Z" fill="#6F4ADD"/>
</svg>
