<svg width="27" height="23" viewBox="0 0 27 23" fill="none" xmlns="http://www.w3.org/2000/svg">
<path fill-rule="evenodd" clip-rule="evenodd" d="M2.00437 2.29313C3.35276 0.813041 5.2762 0 7.53692 0C9.59611 0 11.795 0.973269 13.2676 2.87573C14.7344 0.974261 16.9249 0 19.0015 0C21.2549 0 23.1779 0.808893 24.5281 2.28662C25.8659 3.75086 26.5385 5.75718 26.5385 7.98539C26.5385 11.8164 24.5697 14.8997 22.0772 17.2969C19.5903 19.6889 16.4677 21.5123 13.879 22.8516C13.4947 23.0504 13.0377 23.0494 12.6544 22.849C10.0655 21.4953 6.94202 19.6854 4.45686 17.3051C1.96287 14.9162 0 11.8416 0 7.98539C0 5.76485 0.668847 3.75909 2.00437 2.29313ZM3.96616 4.08037C3.16112 4.96404 2.65385 6.28751 2.65385 7.98539C2.65385 10.8579 4.09764 13.2862 6.29257 15.3885C8.32083 17.3313 10.8945 18.9003 13.2719 20.1734C15.6352 18.9165 18.2082 17.3361 20.2376 15.3842C22.4383 13.2675 23.8846 10.8294 23.8846 7.98539C23.8846 6.28163 23.3747 4.95872 22.5689 4.07671C21.7753 3.2082 20.5933 2.65385 19.0015 2.65385C17.275 2.65385 15.2982 3.7638 14.5298 6.10159C14.3508 6.64614 13.8424 7.01421 13.2692 7.01421C12.696 7.01421 12.1876 6.64614 12.0086 6.10159C11.2411 3.76631 9.24462 2.65385 7.53692 2.65385C5.93989 2.65385 4.75834 3.21083 3.96616 4.08037Z" fill="#ADA8BA"/>
</svg>
