<svg width="27" height="27" viewBox="0 0 27 27" fill="none" xmlns="http://www.w3.org/2000/svg">
<path fill-rule="evenodd" clip-rule="evenodd" d="M15.0552 16.6089C15.1421 17.0864 15.1875 17.5914 15.1875 18.1198C15.1875 21.3391 12.8476 24.2955 8.79233 24.6912C5.67016 24.9958 3.08481 23.4838 1.69051 21.6977C1.55221 21.5205 1.43526 21.3325 1.33667 21.1361C0.946148 20.358 0.843764 19.448 0.84375 18.5577C1.37018 18.6375 1.85436 18.633 2.28228 18.5577C3.35375 18.369 4.0725 17.7359 4.21875 16.8703C4.60647 14.5752 6.02738 11.8125 9.72125 11.8125C9.97157 11.8125 10.2163 11.8283 10.4547 11.8592L16.2205 3.78702C17.1617 2.46946 18.6811 1.6875 20.3003 1.6875C23.0693 1.6875 25.3139 3.93218 25.3139 6.70114C25.3139 8.3203 24.532 9.83979 23.2144 10.7809L15.0552 16.6089ZM14.1118 14.1721L18.8673 10.7753C18.408 9.55685 17.4446 8.59346 16.2261 8.1341L12.8693 12.8336C13.3495 13.1955 13.7677 13.6458 14.1118 14.1721ZM20.9723 9.27179L21.7432 8.72114C22.3955 8.25517 22.7827 7.50283 22.7827 6.70114C22.7827 5.33015 21.6713 4.21875 20.3003 4.21875C19.4986 4.21875 18.7463 4.60592 18.2803 5.25828L17.7297 6.02918C19.1402 6.71888 20.2826 7.86127 20.9723 9.27179ZM6.71463 17.2919C6.85921 16.4361 7.17356 15.669 7.62544 15.1586C8.00504 14.7298 8.59093 14.3438 9.72125 14.3438C10.5948 14.3438 11.2627 14.6758 11.7436 15.2268C12.2449 15.8012 12.6562 16.7552 12.6562 18.1198C12.6562 20.0125 11.3291 21.9004 8.54651 22.1719C6.68912 22.3531 5.10791 21.5965 4.11012 20.6147C5.39039 20.0464 6.42847 18.9858 6.71463 17.2919Z" fill="#ADA8BA"/>
</svg>
