<svg width="22" height="16" viewBox="0 0 22 16" fill="none" xmlns="http://www.w3.org/2000/svg">
<path fill-rule="evenodd" clip-rule="evenodd" d="M17.4545 2.18182H4.36364C3.15865 2.18182 2.18182 3.15865 2.18182 4.36364L19.6364 4.36364C19.6364 3.15865 18.6595 2.18182 17.4545 2.18182ZM2.18182 11.6364V6.54545H19.6364V11.6364C19.6364 12.8413 18.6595 13.8182 17.4545 13.8182H4.36364C3.15865 13.8182 2.18182 12.8413 2.18182 11.6364ZM4.36364 0C1.95367 0 0 1.95367 0 4.36364V11.6364C0 14.0463 1.95367 16 4.36364 16H17.4545C19.8645 16 21.8182 14.0463 21.8182 11.6364V4.36364C21.8182 1.95367 19.8645 0 17.4545 0H4.36364ZM5.45455 9.45455C4.85205 9.45455 4.36364 9.94296 4.36364 10.5455C4.36364 11.1479 4.85205 11.6364 5.45455 11.6364H9.09091C9.6934 11.6364 10.1818 11.1479 10.1818 10.5455C10.1818 9.94296 9.6934 9.45455 9.09091 9.45455H5.45455Z" fill="#ADA8BA"/>
</svg>
