<svg width="28" height="24" viewBox="0 0 28 24" fill="none" xmlns="http://www.w3.org/2000/svg">
<path fill-rule="evenodd" clip-rule="evenodd" d="M21 3H22C23.6568 3 25 4.34314 25 6V7H21V3ZM21 10V14H25V10H21ZM28 10V14V17V18C28 21.3137 25.3137 24 22 24H21H18H10H7H6C2.68629 24 0 21.3137 0 18V17V14V10V7V6C0 2.68629 2.68629 0 6 0H7H10H18H21H22C25.3137 0 28 2.68629 28 6V7V10ZM25 17H21V21H22C23.6568 21 25 19.6569 25 18V17ZM18 3H10V21H18V3ZM7 21V17H3V18C3 19.6569 4.34314 21 6 21H7ZM7 10V14H3V10H7ZM7 7H3V6C3 4.34314 4.34314 3 6 3H7V7Z" fill="#ADA8BA"/>
</svg>
