<svg width="28" height="23" viewBox="0 0 28 23" fill="none" xmlns="http://www.w3.org/2000/svg">
<path fill-rule="evenodd" clip-rule="evenodd" d="M11.9634 2.97874L3.04467 6.80106C2.79007 6.91017 2.625 7.16051 2.625 7.4375C2.625 7.71449 2.79007 7.96483 3.04467 8.07394L11.9634 11.8963C12.508 12.1297 13.0943 12.25 13.6868 12.25H14.3132C14.9057 12.25 15.492 12.1297 16.0366 11.8963L24.9553 8.07394C25.2099 7.96483 25.375 7.71449 25.375 7.4375C25.375 7.16051 25.2099 6.91017 24.9553 6.80106L16.0366 2.97874C15.492 2.74535 14.9057 2.625 14.3132 2.625H13.6868C13.0943 2.625 12.508 2.74535 11.9634 2.97874ZM2.625 10.75L5.2499 11.875V17.5243C5.2499 18.85 5.99891 20.0619 7.18467 20.6548L8.59579 21.3603C12.0027 23.0637 16.0081 23.0854 19.4333 21.419L21.0238 20.6452C22.2282 20.0593 22.9926 18.8374 22.9926 17.498V11.771L25.9894 10.4867C27.2091 9.96394 28 8.76456 28 7.4375C28 6.11044 27.2091 4.91106 25.9894 4.3883L17.0706 0.565985C16.1993 0.192554 15.2612 0 14.3132 0H13.6868C12.7388 0 11.8007 0.192554 10.9294 0.565985L2.01063 4.3883C0.790865 4.91106 0 6.11044 0 7.4375V15.3125C0 16.0374 0.587626 16.625 1.3125 16.625C2.03737 16.625 2.625 16.0374 2.625 15.3125V10.75ZM7.8749 17.5243V13L10.9294 14.309C11.8007 14.6824 12.7388 14.875 13.6868 14.875H14.3132C15.2612 14.875 16.1993 14.6824 17.0706 14.309L20.3676 12.896V17.498C20.3676 17.8328 20.1765 18.1383 19.8754 18.2848L18.2849 19.0586C15.5937 20.3679 12.4466 20.3508 9.76971 19.0124L8.35859 18.3069C8.06215 18.1587 7.8749 17.8557 7.8749 17.5243Z" fill="#ADA8BA"/>
</svg>
