<svg width="39" height="29" viewBox="0 0 39 29" fill="none" xmlns="http://www.w3.org/2000/svg">
<path fill-rule="evenodd" clip-rule="evenodd" d="M26.1811 1.06497C23.0027 2.43639 21.4917 6.08705 22.771 9.30355L28.8351 24.5498C30.1751 27.9189 34.6209 28.6477 36.9664 25.8827C38.492 24.0843 38.4875 21.4447 36.9557 19.6516L28.557 9.82C33.5657 11.0612 36.4779 4.35383 32.1511 1.54179L31.4471 1.08422C30.1234 0.223943 28.4572 0.0828381 27.0077 0.708272L26.1811 1.06497ZM5.93072 4.28665C7.20691 1.14826 10.7856 -0.361356 13.924 0.914826L14.6783 1.22153C15.7648 1.66338 16.6289 2.49562 17.1169 3.5332C17.2882 3.79879 17.4366 4.0879 17.5577 4.39979L23.3857 19.4054C24.61 22.5576 23.1048 26.1119 19.989 27.4262L19.1819 27.7667C17.7567 28.3679 16.1253 28.2154 14.8362 27.3606L14.1366 26.8967C9.93038 24.1074 12.8393 17.5738 17.7267 18.8332L9.57756 9.1217C9.50122 9.03074 9.42887 8.93761 9.3605 8.84255L8.16244 19.9013C7.87245 22.5781 5.10106 24.2331 2.60696 23.2189C0.533664 22.3758 -0.463624 20.0116 0.379453 17.9383L5.93072 4.28665Z" fill="black"/>
</svg>
