<svg width="45" height="33" viewBox="0 0 45 33" fill="none" xmlns="http://www.w3.org/2000/svg">
<path fill-rule="evenodd" clip-rule="evenodd" d="M30.8868 0.878877C27.1257 2.50174 25.3376 6.82174 26.8515 10.628L34.0274 28.6696C35.6131 32.6565 40.874 33.5188 43.6496 30.2469C45.4549 28.1188 45.4496 24.9952 43.6369 22.8733L33.6983 11.2391C39.6254 12.7079 43.0715 4.77074 37.9515 1.44312L37.1183 0.901652C35.552 -0.116351 33.5802 -0.283325 31.865 0.456781L30.8868 0.878877ZM6.92358 4.69134C8.43375 0.977543 12.6686 -0.808865 16.3824 0.701302L17.275 1.06425C18.5608 1.5871 19.5832 2.57192 20.1607 3.79971C20.3634 4.114 20.539 4.45611 20.6823 4.82518L27.5788 22.582C29.0276 26.3122 27.2465 30.5182 23.5594 32.0735L22.6043 32.4764C20.9178 33.1878 18.9872 33.0074 17.4618 31.9958L16.634 31.4468C11.6565 28.1461 15.0988 20.4146 20.8822 21.9049L11.239 10.4128C11.1487 10.3052 11.0631 10.195 10.9822 10.0825L9.56448 23.1689C9.22132 26.3365 5.9418 28.2949 2.99041 27.0948C0.536984 26.0971 -0.643153 23.2995 0.354499 20.846L6.92358 4.69134Z" fill="#717192"/>
</svg>
